<svg width="100%" height="100%" viewBox="0 0 161 48" fill="#f2f4f8" xmlns="http://www.w3.org/2000/svg">
<path d="M157.656 11.2329C155.04 6.61334 147.717 1.58406 125.004 1.58405C118.113 1.58405 109.056 1.46435 99.14 1.3333C76.2056 1.0302 48.6771 0.666389 32.7348 1.58239C21.3401 2.2371 14.3706 3.73336 9.98186 5.67967C5.65881 7.59684 3.84387 9.94691 2.74225 12.4368C1.62881 14.9535 1.00886 19.6316 1.00003 24.2985C0.995665 26.6091 1.14134 28.8683 1.4355 30.7948C1.73404 32.75 2.17093 34.2595 2.69024 35.1445C3.8632 37.1436 5.82274 39.8601 10.0331 42.1416C14.2663 44.4355 20.8468 46.3282 31.3208 46.5174C41.8968 46.7084 64.303 46.9865 85.9495 46.9995C107.631 47.0126 128.453 46.7587 135.926 45.8975C143.423 45.0334 148.106 43.7575 151.309 42.1266C154.47 40.5171 156.247 38.5325 157.877 36.0934C158.605 35.0055 159.17 33.2428 159.531 31.0247C159.887 28.8323 160.029 26.2956 159.977 23.7399C159.926 21.1855 159.68 18.6365 159.273 16.4222C158.863 14.1872 158.301 12.3718 157.656 11.2329Z" stroke="#1D2026" stroke-width="2"></path>
</svg>