<svg xmlns="http://www.w3.org/2000/svg" xmlns:xlink="http://www.w3.org/1999/xlink" viewBox="0 0 24 24" width="24" height="24" preserveAspectRatio="xMidYMid meet" style="width: 100%; height: 100%; transform: translate3d(0px, 0px, 0px); content-visibility: visible;"><defs><clipPath id="__lottie_element_2"><rect width="24" height="24" x="0" y="0"></rect></clipPath></defs><g clip-path="url(#__lottie_element_2)"><g transform="matrix(1,0,0,1,0,19)" opacity="1" style="display: block;"><g opacity="1" transform="matrix(1,0,0,1,11.753999710083008,1.8530000448226929)"><path fill="rgb(170,112,230)" fill-opacity="1" d=" M-4.38700008392334,-1.5839999914169312 C-5.0879998207092285,-1.562999963760376 -6.039999961853027,-1.5149999856948853 -6.267000198364258,-1.4910000562667847 C-7.125999927520752,-1.402999997138977 -8.003000259399414,-1.2350000143051147 -9.039999961853027,-0.9629999995231628 C-10.531000137329102,-0.5709999799728394 -11.359999656677246,-0.2720000147819519 -11.461999893188477,-0.08799999952316284 C-11.503999710083008,-0.013000000268220901 -11.407999992370605,0.13899999856948853 -11.248000144958496,0.24799999594688416 C-10.878000259399414,0.5009999871253967 -9.77400016784668,0.871999979019165 -8.611000061035156,1.1330000162124634 C-8.163000106811523,1.2319999933242798 -7.360000133514404,1.371000051498413 -7.053999900817871,1.399999976158142 C-6.949999809265137,1.4110000133514404 -4.199999809265137,1.4210000038146973 -0.9470000267028809,1.4270000457763672 C2.309000015258789,1.4290000200271606 5.140999794006348,1.440000057220459 5.3460001945495605,1.4509999752044678 C7.629000186920166,1.565000057220459 9.425999641418457,1.6030000448226929 9.937999725341797,1.5440000295639038 C10.71399974822998,1.4589999914169312 11.130000114440918,1.2350000143051147 11.333000183105469,0.7919999957084656 C11.380999565124512,0.6850000023841858 11.432000160217285,0.5759999752044678 11.447999954223633,0.546999990940094 C11.489999771118164,0.46700000762939453 11.503999710083008,0.125 11.468999862670898,0.05900000035762787 C11.40999984741211,-0.050999999046325684 10.847999572753906,-0.29899999499320984 10.345999717712402,-0.43700000643730164 C9.84000015258789,-0.5730000138282776 8.407999992370605,-0.859000027179718 7.185999870300293,-1.0670000314712524 C5.6479997634887695,-1.3279999494552612 4.361999988555908,-1.4529999494552612 2.2799999713897705,-1.5490000247955322 C1.7139999866485596,-1.5729999542236328 -3.7760000228881836,-1.6030000448226929 -4.38700008392334,-1.5839999914169312z"></path></g></g><g transform="matrix(1,0,0,1,-0.5,1.125)" opacity="1" style="display: block;"><g opacity="1" transform="matrix(1,0,0,1,12.423999786376953,1.878000020980835)"><path fill="rgb(170,112,230)" fill-opacity="1" d=" M-1.437999963760376,-1.593000054359436 C-3.1050000190734863,-1.5479999780654907 -7.241000175476074,-1.3580000400543213 -8.104999542236328,-1.2890000343322754 C-8.746999740600586,-1.2380000352859497 -9.4350004196167,-1.1339999437332153 -9.758000373840332,-1.0410000085830688 C-9.883000373840332,-1.00600004196167 -10.109000205993652,-0.9449999928474426 -10.263999938964844,-0.9020000100135803 C-10.74899959564209,-0.7770000100135803 -11.130000114440918,-0.6010000109672546 -11.53600025177002,-0.3240000009536743 C-12.17300033569336,0.11100000143051147 -12.157999992370605,0.41200000047683716 -11.472999572753906,0.8230000138282776 C-11.109999656677246,1.0440000295639038 -10.329000473022461,1.3509999513626099 -9.810999870300293,1.4789999723434448 C-9.208999633789062,1.628000020980835 -9.178999900817871,1.628000020980835 -7.451000213623047,1.5219999551773071 C-7.098999977111816,1.5 -6.052999973297119,1.4390000104904175 -5.130000114440918,1.3880000114440918 C-4.204999923706055,1.3380000591278076 -2.813999891281128,1.2599999904632568 -2.0380001068115234,1.215000033378601 C-1.2589999437332153,1.1720000505447388 -0.3179999887943268,1.1239999532699585 0.054999999701976776,1.1080000400543213 C0.42899999022483826,1.0920000076293945 0.8220000267028809,1.0759999752044678 0.9229999780654907,1.0679999589920044 C1.0269999504089355,1.062999963760376 2.687000036239624,1.0440000295639038 4.614999771118164,1.031000018119812 C6.543000221252441,1.0149999856948853 8.458999633789062,0.9909999966621399 8.869999885559082,0.9750000238418579 C10.46399974822998,0.9160000085830688 11.456000328063965,0.8040000200271606 11.760000228881836,0.6499999761581421 C11.859000205993652,0.5989999771118164 11.89799976348877,0.5540000200271606 11.967000007629395,0.42800000309944153 C12.012999534606934,0.3400000035762787 12.053000450134277,0.24400000274181366 12.053000450134277,0.21799999475479126 C12.055000305175781,0.18799999356269836 12.074999809265137,0.1459999978542328 12.095999717712402,0.11900000274181366 C12.123000144958496,0.09200000017881393 12.142999649047852,-0.0010000000474974513 12.154000282287598,-0.11599999666213989 C12.17300033569336,-0.3479999899864197 12.156999588012695,-0.36899998784065247 11.885000228881836,-0.5 C11.413000106811523,-0.7289999723434448 10.420999526977539,-0.9160000085830688 8.842000007629395,-1.0759999752044678 C7.965000152587891,-1.1660000085830688 4.307000160217285,-1.4359999895095825 2.882999897003174,-1.5180000066757202 C1.4459999799728394,-1.5980000495910645 -0.18199999630451202,-1.628000020980835 -1.437999963760376,-1.593000054359436z"></path></g></g><g transform="matrix(1,0,0,1,0,10)" opacity="1" style="display: block;"><g opacity="1" transform="matrix(1,0,0,1,11.623000144958496,1.503000020980835)"><path fill="rgb(170,112,230)" fill-opacity="1" d=" M-5.639999866485596,-1.2239999771118164 C-6.059000015258789,-1.2130000591278076 -7.10699987411499,-1.184000015258789 -7.9730000495910645,-1.159999966621399 C-8.836999893188477,-1.1390000581741333 -9.61299991607666,-1.1069999933242798 -9.692999839782715,-1.090999960899353 C-10.567999839782715,-0.9229999780654907 -10.875,-0.8240000009536743 -11.114999771118164,-0.6320000290870667 C-11.255999565124512,-0.5170000195503235 -11.373000144958496,-0.3310000002384186 -11.373000144958496,-0.22100000083446503 C-11.373000144958496,-0.12300000339746475 -11.288000106811523,0.05900000035762787 -11.163000106811523,0.23199999332427979 C-10.980999946594238,0.4830000102519989 -10.22700023651123,1.0080000162124634 -9.883000373840332,1.125 C-9.71500015258789,1.184000015258789 -9.67199993133545,1.187000036239624 -9,1.1790000200271606 C-8.184000015258789,1.1729999780654907 -7.410999774932861,1.1440000534057617 -5.546999931335449,1.0529999732971191 C-3.0190000534057617,0.9279999732971191 -1.746999979019165,0.8880000114440918 0,0.871999979019165 C1.8849999904632568,0.8529999852180481 3.5250000953674316,0.9120000004768372 6.546999931335449,1.1069999933242798 C8.37600040435791,1.2239999771118164 8.97599983215332,1.253000020980835 9.600000381469727,1.253000020980835 C10.567999839782715,1.253000020980835 11.069000244140625,1.1119999885559082 11.244999885559082,0.7870000004768372 C11.28499984741211,0.7149999737739563 11.3149995803833,0.6480000019073486 11.3149995803833,0.6399999856948853 C11.312000274658203,0.6320000290870667 11.324999809265137,0.5920000076293945 11.340999603271484,0.5519999861717224 C11.359999656677246,0.5090000033378601 11.373000144958496,0.42399999499320984 11.373000144958496,0.3569999933242798 C11.373000144958496,0.2529999911785126 11.364999771118164,0.23499999940395355 11.300999641418457,0.20800000429153442 C11.255999565124512,0.1889999955892563 11.045000076293945,0.17599999904632568 10.786999702453613,0.17299999296665192 C10.520000457763672,0.17100000381469727 10.232000350952148,0.15199999511241913 10.053000450134277,0.12300000339746475 C8.791999816894531,-0.07500000298023224 8.154999732971191,-0.17599999904632568 7.427000045776367,-0.2930000126361847 C6.320000171661377,-0.47200000286102295 4.584000110626221,-0.7200000286102295 3.506999969482422,-0.8529999852180481 C2.0429999828338623,-1.034999966621399 0.9490000009536743,-1.1330000162124634 -0.4129999876022339,-1.2029999494552612 C-1.1440000534057617,-1.2369999885559082 -4.684999942779541,-1.253000020980835 -5.639999866485596,-1.2239999771118164z"></path></g></g></g></svg>