<svg width="18" height="18" viewBox="0 0 18 18" fill="none" xmlns="http://www.w3.org/2000/svg">
<path d="M9 9C10.0609 9 11.0783 8.57857 11.8284 7.82843C12.5786 7.07828 13 6.06087 13 5C13 3.93913 12.5786 2.92172 11.8284 2.17157C11.0783 1.42143 10.0609 1 9 1C7.93913 1 6.92172 1.42143 6.17157 2.17157C5.42143 2.92172 5 3.93913 5 5C5 6.06087 5.42143 7.07828 6.17157 7.82843C6.92172 8.57857 7.93913 9 9 9ZM11.6667 5C11.6667 5.70724 11.3857 6.38552 10.8856 6.88562C10.3855 7.38572 9.70724 7.66667 9 7.66667C8.29276 7.66667 7.61448 7.38572 7.11438 6.88562C6.61428 6.38552 6.33333 5.70724 6.33333 5C6.33333 4.29276 6.61428 3.61448 7.11438 3.11438C7.61448 2.61428 8.29276 2.33333 9 2.33333C9.70724 2.33333 10.3855 2.61428 10.8856 3.11438C11.3857 3.61448 11.6667 4.29276 11.6667 5ZM17 15.6667C17 17 15.6667 17 15.6667 17H2.33333C2.33333 17 1 17 1 15.6667C1 14.3333 2.33333 10.3333 9 10.3333C15.6667 10.3333 17 14.3333 17 15.6667ZM15.6667 15.6613C15.6653 15.3333 15.4613 14.3467 14.5573 13.4427C13.688 12.5733 12.052 11.6667 9 11.6667C5.94667 11.6667 4.312 12.5733 3.44267 13.4427C2.53867 14.3467 2.336 15.3333 2.33333 15.6613H15.6667Z" fill="currentColor" stroke="#676d7e"></path>
</svg>